<svg width="135" height="19" viewBox="0 0 135 19" fill="none" xmlns="http://www.w3.org/2000/svg">
<path d="M10.0341 6C9.98864 5.43182 9.77557 4.98864 9.39489 4.67045C9.01989 4.35227 8.44886 4.19318 7.68182 4.19318C7.19318 4.19318 6.79261 4.25284 6.48011 4.37216C6.1733 4.4858 5.94602 4.64205 5.7983 4.84091C5.65057 5.03977 5.57386 5.26705 5.56818 5.52273C5.55682 5.73295 5.59375 5.9233 5.67898 6.09375C5.76989 6.25852 5.91193 6.40909 6.10511 6.54545C6.2983 6.67614 6.54545 6.79545 6.84659 6.90341C7.14773 7.01136 7.50568 7.10795 7.92045 7.19318L9.35227 7.5C10.3182 7.70455 11.1449 7.97443 11.8324 8.30966C12.5199 8.64489 13.0824 9.03977 13.5199 9.49432C13.9574 9.94318 14.2784 10.4489 14.483 11.0114C14.6932 11.5739 14.8011 12.1875 14.8068 12.8523C14.8011 14 14.5142 14.9716 13.946 15.767C13.3778 16.5625 12.5653 17.1676 11.5085 17.5824C10.4574 17.9972 9.19318 18.2045 7.71591 18.2045C6.19886 18.2045 4.875 17.9801 3.74432 17.5312C2.61932 17.0824 1.74432 16.392 1.11932 15.4602C0.5 14.5227 0.1875 13.3239 0.181818 11.8636H4.68182C4.71023 12.3977 4.84375 12.8466 5.08239 13.2102C5.32102 13.5739 5.65625 13.8494 6.08807 14.0369C6.52557 14.2244 7.04545 14.3182 7.64773 14.3182C8.15341 14.3182 8.5767 14.2557 8.91761 14.1307C9.25852 14.0057 9.51705 13.8324 9.69318 13.6108C9.86932 13.3892 9.96023 13.1364 9.96591 12.8523C9.96023 12.5852 9.87216 12.3523 9.7017 12.1534C9.53693 11.9489 9.2642 11.767 8.88352 11.608C8.50284 11.4432 7.98864 11.2898 7.34091 11.1477L5.60227 10.7727C4.05682 10.4375 2.83807 9.87784 1.94602 9.09375C1.05966 8.30398 0.619318 7.22727 0.625 5.86364C0.619318 4.75568 0.914773 3.78693 1.51136 2.95739C2.11364 2.12216 2.94602 1.47159 4.00852 1.00568C5.0767 0.539772 6.30114 0.306818 7.68182 0.306818C9.09091 0.306818 10.3097 0.542613 11.3381 1.0142C12.3665 1.4858 13.1591 2.15057 13.7159 3.00852C14.2784 3.8608 14.5625 4.85795 14.5682 6H10.0341ZM16.6094 18V0.545454H24.1435C25.4389 0.545454 26.5724 0.801136 27.544 1.3125C28.5156 1.82386 29.2713 2.54261 29.8111 3.46875C30.3509 4.39489 30.6207 5.47727 30.6207 6.71591C30.6207 7.96591 30.3423 9.0483 29.7855 9.96307C29.2344 10.8778 28.4588 11.5824 27.4588 12.0767C26.4645 12.571 25.3026 12.8182 23.973 12.8182H19.473V9.13636H23.0185C23.5753 9.13636 24.0497 9.03977 24.4418 8.84659C24.8395 8.64773 25.1435 8.36648 25.3537 8.00284C25.5696 7.6392 25.6776 7.21023 25.6776 6.71591C25.6776 6.21591 25.5696 5.78977 25.3537 5.4375C25.1435 5.07955 24.8395 4.80682 24.4418 4.61932C24.0497 4.42614 23.5753 4.32954 23.0185 4.32954H21.348V18H16.6094ZM43.6946 6.30682C43.6207 6.00568 43.5043 5.74148 43.3452 5.5142C43.1861 5.28125 42.9872 5.08523 42.7486 4.92614C42.5156 4.76136 42.2429 4.6392 41.9304 4.55966C41.6236 4.47443 41.2855 4.43182 40.9162 4.43182C40.1207 4.43182 39.4418 4.62216 38.8793 5.00284C38.3224 5.38352 37.8963 5.93182 37.6009 6.64773C37.3111 7.36364 37.1662 8.22727 37.1662 9.23864C37.1662 10.2614 37.3054 11.1364 37.5838 11.8636C37.8622 12.5909 38.277 13.1477 38.8281 13.5341C39.3793 13.9205 40.0639 14.1136 40.8821 14.1136C41.6037 14.1136 42.2031 14.0085 42.6804 13.7983C43.1634 13.5881 43.5241 13.2898 43.7628 12.9034C44.0014 12.517 44.1207 12.0625 44.1207 11.5398L44.9389 11.625H40.9503V8.25H48.6889V10.6705C48.6889 12.2614 48.3509 13.6222 47.6747 14.7528C47.0043 15.8778 46.0781 16.7415 44.8963 17.3438C43.7202 17.9403 42.3707 18.2386 40.848 18.2386C39.1491 18.2386 37.6577 17.8778 36.3736 17.1562C35.0895 16.4347 34.0866 15.4062 33.3651 14.071C32.6491 12.7358 32.2912 11.1477 32.2912 9.30682C32.2912 7.86364 32.5099 6.58523 32.9474 5.47159C33.3906 4.35795 34.0043 3.41761 34.7884 2.65057C35.5724 1.87784 36.4787 1.29545 37.5071 0.903408C38.5355 0.505681 39.6378 0.306818 40.8139 0.306818C41.848 0.306818 42.8082 0.454545 43.6946 0.75C44.5866 1.03977 45.3736 1.45454 46.0554 1.99432C46.7429 2.52841 47.2969 3.16193 47.7173 3.89489C48.1378 4.62784 48.3935 5.43182 48.4844 6.30682H43.6946Z" fill="white"/>
<path d="M55.6797 0.545454H61.5774L65.6342 10.4318H65.8388L69.8956 0.545454H75.7933V18H71.157V7.90909H71.0206L67.1342 17.8636H64.3388L60.4524 7.84091H60.3161V18H55.6797V0.545454ZM78.0391 18V0.545454H90.6186V4.36364H82.7777V7.36364H89.9709V11.1818H82.7777V14.1818H90.5845V18H78.0391ZM99.6847 18H92.9688V0.545454H99.6165C101.412 0.545454 102.963 0.894886 104.27 1.59375C105.582 2.28693 106.594 3.28693 107.304 4.59375C108.02 5.89489 108.378 7.45455 108.378 9.27273C108.378 11.0909 108.023 12.6534 107.312 13.9602C106.602 15.2614 105.597 16.2614 104.295 16.9602C102.994 17.6534 101.457 18 99.6847 18ZM97.7074 13.9773H99.5142C100.378 13.9773 101.114 13.8381 101.722 13.5597C102.335 13.2812 102.801 12.8011 103.119 12.1193C103.443 11.4375 103.605 10.4886 103.605 9.27273C103.605 8.05682 103.44 7.10795 103.111 6.42614C102.787 5.74432 102.31 5.2642 101.679 4.98579C101.054 4.70739 100.287 4.56818 99.3778 4.56818H97.7074V13.9773ZM115.309 0.545454V18H110.57V0.545454H115.309ZM122.089 18H116.975L122.737 0.545454H129.214L134.975 18H129.862L126.043 5.35227H125.907L122.089 18ZM121.134 11.1136H130.748V14.6591H121.134V11.1136Z" fill="#C2C6DD"/>
</svg>
